<svg width="12" height="12" viewBox="0 0 12 12" fill="none" xmlns="http://www.w3.org/2000/svg">
<path d="M10.3481 8.57205L6.53819 1.90473C6.45512 1.75815 6.33465 1.63622 6.18907 1.55139C6.0435 1.46657 5.87802 1.42187 5.70954 1.42188C5.54105 1.42187 5.37558 1.46657 5.23 1.55139C5.08443 1.63622 4.96396 1.75815 4.88088 1.90473L1.07099 8.57205C0.98702 8.71747 0.94299 8.88251 0.943362 9.05043C0.943734 9.21836 0.988494 9.3832 1.07311 9.52825C1.15772 9.6733 1.27917 9.7934 1.42516 9.87638C1.57115 9.95936 1.73649 10.0023 1.9044 10.0008H9.5242C9.69131 10.0006 9.85543 9.95645 10.0001 9.87279C10.1447 9.78912 10.2648 9.66887 10.3483 9.5241C10.4318 9.37933 10.4757 9.21515 10.4757 9.04804C10.4756 8.88093 10.4316 8.71677 10.3481 8.57205Z" stroke="#E7000B" stroke-width="0.952474" stroke-linecap="round" stroke-linejoin="round"/>
<path d="M5.71484 4.28516V6.1901" stroke="#E7000B" stroke-width="0.952474" stroke-linecap="round" stroke-linejoin="round"/>
<path d="M5.71484 8.09766H5.71961" stroke="#E7000B" stroke-width="0.952474" stroke-linecap="round" stroke-linejoin="round"/>
</svg>
