<svg width="15" height="15" viewBox="0 0 15 15" fill="none" xmlns="http://www.w3.org/2000/svg">
<path d="M9.13299 3.5371C9.01084 3.66172 8.94242 3.82926 8.94242 4.00376C8.94242 4.17826 9.01084 4.34581 9.13299 4.47043L10.1997 5.5371C10.3243 5.65925 10.4918 5.72767 10.6663 5.72767C10.8408 5.72767 11.0084 5.65925 11.133 5.5371L13.2037 3.4671C13.417 3.25243 13.779 3.32043 13.859 3.61243C14.0604 4.34501 14.049 5.11981 13.8262 5.84616C13.6033 6.57251 13.1782 7.22036 12.6006 7.71392C12.023 8.20748 11.3167 8.52632 10.5645 8.63314C9.81227 8.73996 9.04519 8.63034 8.35299 8.3171L3.07966 13.5904C2.81444 13.8556 2.45477 14.0045 2.07976 14.0044C1.70475 14.0043 1.34512 13.8553 1.07999 13.5901C0.814865 13.3249 0.665953 12.9652 0.666016 12.5902C0.666078 12.2152 0.81511 11.8556 1.08033 11.5904L6.35366 6.3171C6.04042 5.6249 5.9308 4.85782 6.03762 4.1056C6.14443 3.35337 6.46328 2.64713 6.95683 2.06951C7.45039 1.49188 8.09825 1.06677 8.8246 0.843914C9.55095 0.621057 10.3257 0.609674 11.0583 0.811096C11.3503 0.891096 11.4183 1.25243 11.2043 1.4671L9.13299 3.5371Z" stroke="#0A0A0A" stroke-width="1.33333" stroke-linecap="round" stroke-linejoin="round"/>
</svg>
