<svg width="32" height="32" viewBox="0 0 32 32" fill="none" xmlns="http://www.w3.org/2000/svg">
<rect width="32" height="32" rx="16" fill="#0064E1"/>
<path d="M11.5 8C10.837 8 10.2011 8.26339 9.73223 8.73223C9.26339 9.20107 9 9.83696 9 10.5V19.5C9 20.318 9.393 21.044 10 21.5V23.5C10 23.6326 10.0527 23.7598 10.1464 23.8536C10.2402 23.9473 10.3674 24 10.5 24H12.5C12.6326 24 12.7598 23.9473 12.8536 23.8536C12.9473 23.7598 13 23.6326 13 23.5V22H19V23.5C19 23.6326 19.0527 23.7598 19.1464 23.8536C19.2402 23.9473 19.3674 24 19.5 24H21.5C21.6326 24 21.7598 23.9473 21.8536 23.8536C21.9473 23.7598 22 23.6326 22 23.5V21.5C22.607 21.044 23 20.318 23 19.5V10.5C23 9.83696 22.7366 9.20107 22.2678 8.73223C21.7989 8.26339 21.163 8 20.5 8H11.5ZM11 11C11 10.7348 11.1054 10.4804 11.2929 10.2929C11.4804 10.1054 11.7348 10 12 10H20C20.2652 10 20.5196 10.1054 20.7071 10.2929C20.8946 10.4804 21 10.7348 21 11V14.9C21 15.525 20.438 15.992 19.83 15.894C18.925 15.747 17.208 15.5 16 15.5C14.792 15.5 13.075 15.747 12.17 15.894C12.0259 15.9175 11.8784 15.9093 11.7378 15.8702C11.5971 15.8311 11.4666 15.7618 11.3554 15.6673C11.2441 15.5728 11.1547 15.4552 11.0933 15.3227C11.032 15.1902 11.0001 15.046 11 14.9V11ZM12 20C11.7348 20 11.4804 19.8946 11.2929 19.7071C11.1054 19.5196 11 19.2652 11 19C11 18.7348 11.1054 18.4804 11.2929 18.2929C11.4804 18.1054 11.7348 18 12 18C12.2652 18 12.5196 18.1054 12.7071 18.2929C12.8946 18.4804 13 18.7348 13 19C13 19.2652 12.8946 19.5196 12.7071 19.7071C12.5196 19.8946 12.2652 20 12 20ZM20 20C19.7348 20 19.4804 19.8946 19.2929 19.7071C19.1054 19.5196 19 19.2652 19 19C19 18.7348 19.1054 18.4804 19.2929 18.2929C19.4804 18.1054 19.7348 18 20 18C20.2652 18 20.5196 18.1054 20.7071 18.2929C20.8946 18.4804 21 18.7348 21 19C21 19.2652 20.8946 19.5196 20.7071 19.7071C20.5196 19.8946 20.2652 20 20 20ZM15 18H17C17.2652 18 17.5196 18.1054 17.7071 18.2929C17.8946 18.4804 18 18.7348 18 19C18 19.2652 17.8946 19.5196 17.7071 19.7071C17.5196 19.8946 17.2652 20 17 20H15C14.7348 20 14.4804 19.8946 14.2929 19.7071C14.1054 19.5196 14 19.2652 14 19C14 18.7348 14.1054 18.4804 14.2929 18.2929C14.4804 18.1054 14.7348 18 15 18Z" fill="white"/>
</svg>
