<svg width="32" height="32" viewBox="0 0 32 32" fill="none" xmlns="http://www.w3.org/2000/svg">
<rect width="32" height="32" rx="16" fill="#21DDB8"/>
<path d="M18.9476 8.73629C18.1992 7.93904 17.1538 7.5 16 7.5C14.84 7.5 13.7912 7.93638 13.0462 8.7287C12.2932 9.52974 11.9263 10.6184 12.0124 11.794C12.1832 14.1133 13.972 16 16 16C18.028 16 19.8137 14.1136 19.9872 11.7948C20.0745 10.6298 19.7053 9.5434 18.9476 8.73629ZM22.769 24.4999H9.23096C9.05375 24.5022 8.87827 24.4654 8.71726 24.3924C8.55626 24.3193 8.41379 24.2118 8.30021 24.0776C8.05022 23.7827 7.94945 23.3801 8.02407 22.9729C8.34867 21.1963 9.36172 19.7039 10.954 18.6562C12.3686 17.7261 14.1604 17.2142 16 17.2142C17.8396 17.2142 19.6314 17.7265 21.046 18.6562C22.6383 19.7035 23.6513 21.1959 23.9759 22.9726C24.0505 23.3797 23.9498 23.7823 23.6998 24.0772C23.5863 24.2115 23.4438 24.3191 23.2828 24.3922C23.1218 24.4653 22.9463 24.5021 22.769 24.4999Z" fill="white"/>
</svg>
