<svg width="32" height="32" viewBox="0 0 32 32" fill="none" xmlns="http://www.w3.org/2000/svg">
<rect width="32" height="32" rx="16" fill="#1A387D"/>
<path d="M9.85584 21.7143V9.52381V15.0857V14.8571V21.7143ZM10.6177 14.9333V19.9619C10.6177 20.1397 10.6749 20.2857 10.7892 20.4C10.9035 20.5143 11.0495 20.5714 11.2273 20.5714H11.532C11.7098 20.5714 11.8558 20.5143 11.9701 20.4C12.0844 20.2857 12.1416 20.1397 12.1416 19.9619V19.0476H14.5606C14.8146 19.0476 15.002 18.9684 15.1229 18.8099C15.2438 18.6514 15.304 18.4767 15.3035 18.2857C15.303 18.0947 15.2425 17.9203 15.1221 17.7623C15.0017 17.6043 14.8146 17.5248 14.5606 17.5238H12.1416V15.2381H20.2368C20.4908 15.2381 20.6939 15.1365 20.8463 14.9333C20.9987 14.7302 21.0368 14.5016 20.9606 14.2476L20.0273 11.2762C19.9638 11.0984 19.8589 10.9524 19.7126 10.8381C19.5663 10.7238 19.4045 10.6667 19.2273 10.6667H12.6749C12.4971 10.6667 12.3351 10.7238 12.1888 10.8381C12.0425 10.9524 11.9379 11.0984 11.8749 11.2762L10.6177 14.9333ZM12.6368 13.7143L13.1701 12.1905H18.732L19.2654 13.7143H12.6368ZM13.6654 17.1429C13.8812 17.1429 14.0623 17.0697 14.2086 16.9234C14.3549 16.7771 14.4278 16.5963 14.4273 16.381C14.4268 16.1656 14.3536 15.9848 14.2078 15.8385C14.0621 15.6922 13.8812 15.619 13.6654 15.619C13.4495 15.619 13.2687 15.6922 13.1229 15.8385C12.9771 15.9848 12.904 16.1656 12.9035 16.381C12.903 16.5963 12.9761 16.7774 13.1229 16.9242C13.2697 17.071 13.4505 17.1439 13.6654 17.1429ZM19.9892 20.7619L19.2082 19.981C19.132 19.9048 19.0368 19.8667 18.9225 19.8667C18.8082 19.8667 18.713 19.9048 18.6368 19.981C18.5606 20.0571 18.5225 20.1524 18.5225 20.2667C18.5225 20.381 18.5606 20.4762 18.6368 20.5524L19.4558 21.3714C19.6082 21.5238 19.786 21.6 19.9892 21.6C20.1923 21.6 20.3701 21.5238 20.5225 21.3714L22.4082 19.4857C22.4844 19.4095 22.5225 19.3143 22.5225 19.2C22.5225 19.0857 22.4844 18.9905 22.4082 18.9143C22.332 18.8381 22.2368 18.8 22.1225 18.8C22.0082 18.8 21.913 18.8381 21.8368 18.9143L19.9892 20.7619ZM20.5225 16.381C21.5765 16.381 22.475 16.7525 23.2181 17.4956C23.9612 18.2387 24.3325 19.137 24.332 20.1905C24.3315 21.2439 23.96 22.1425 23.2174 22.8861C22.4748 23.6297 21.5765 24.001 20.5225 24C19.4685 23.999 18.5703 23.6274 17.8277 22.8853C17.085 22.1432 16.7135 21.245 16.713 20.1905C16.7125 19.136 17.084 18.2377 17.8277 17.4956C18.5713 16.7535 19.4696 16.382 20.5225 16.381ZM9.85584 23.2381C9.43679 23.2381 9.07819 23.089 8.78003 22.7909C8.48187 22.4927 8.33254 22.1338 8.33203 21.7143V9.52381C8.33203 9.10476 8.48136 8.74616 8.78003 8.448C9.0787 8.14984 9.4373 8.00051 9.85584 8H22.0463C22.4654 8 22.8242 8.14933 23.1229 8.448C23.4216 8.74667 23.5706 9.10527 23.5701 9.52381V14.3238C23.5701 14.5397 23.497 14.7208 23.3507 14.867C23.2044 15.0133 23.0236 15.0862 22.8082 15.0857C22.5929 15.0852 22.412 15.0121 22.2657 14.8663C22.1195 14.7205 22.0463 14.5397 22.0463 14.3238V9.52381H9.85584V21.7143H15.0177C15.2336 21.7143 15.4147 21.7874 15.561 21.9337C15.7073 22.08 15.7802 22.2608 15.7797 22.4762C15.7791 22.6916 15.706 22.8726 15.5602 23.0194C15.4144 23.1662 15.2336 23.2391 15.0177 23.2381H9.85584Z" fill="white"/>
</svg>
