<svg width="32" height="32" viewBox="0 0 32 32" fill="none" xmlns="http://www.w3.org/2000/svg">
<rect width="32" height="32" rx="16" fill="#FFB51D"/>
<path d="M23.2 10H14.4C14.1878 10 13.9843 10.0843 13.8343 10.2343C13.6843 10.3843 13.6 10.5878 13.6 10.8V19.6C13.6 19.8122 13.6843 20.0157 13.8343 20.1657C13.9843 20.3157 14.1878 20.4 14.4 20.4H23.2C23.4122 20.4 23.6157 20.3157 23.7657 20.1657C23.9157 20.0157 24 19.8122 24 19.6V10.8C24 10.5878 23.9157 10.3843 23.7657 10.2343C23.6157 10.0843 23.4122 10 23.2 10ZM8 20.4H13.6V14.8H10.8L8 17.3848V20.4Z" stroke="white" stroke-width="2" stroke-linejoin="round"/>
<path d="M13.5984 21.1992C13.5984 21.6236 13.4299 22.0305 13.1298 22.3306C12.8297 22.6306 12.4228 22.7992 11.9984 22.7992C11.5741 22.7992 11.1671 22.6306 10.8671 22.3306C10.567 22.0305 10.3984 21.6236 10.3984 21.1992M22.3984 21.1992C22.3984 21.6236 22.2299 22.0305 21.9298 22.3306C21.6298 22.6306 21.2228 22.7992 20.7984 22.7992C20.3741 22.7992 19.9671 22.6306 19.6671 22.3306C19.367 22.0305 19.1984 21.6236 19.1984 21.1992" stroke="white" stroke-width="2" stroke-linecap="round" stroke-linejoin="round"/>
</svg>
