<svg width="38" height="32" viewBox="0 0 38 32" fill="none" xmlns="http://www.w3.org/2000/svg">
<mask id="path-1-inside-1_3126_29301" fill="white">
<path d="M0 8C0 3.58172 3.58172 0 8 0H29.3878C33.8061 0 37.3878 3.58172 37.3878 8V23.99C37.3878 28.4083 33.8061 31.99 29.3878 31.99H8C3.58172 31.99 0 28.4083 0 23.99V8Z"/>
</mask>
<path d="M0 8C0 3.58172 3.58172 0 8 0H29.3878C33.8061 0 37.3878 3.58172 37.3878 8V23.99C37.3878 28.4083 33.8061 31.99 29.3878 31.99H8C3.58172 31.99 0 28.4083 0 23.99V8Z" fill="white"/>
<path d="M8 0V0.705015H29.3878V0V-0.705015H8V0ZM37.3878 8H36.6828V23.99H37.3878H38.0928V8H37.3878ZM29.3878 31.99V31.285H8V31.99V32.6951H29.3878V31.99ZM0 23.99H0.705015V8H0H-0.705015V23.99H0ZM8 31.99V31.285C3.97109 31.285 0.705015 28.019 0.705015 23.99H0H-0.705015C-0.705015 28.7977 3.19236 32.6951 8 32.6951V31.99ZM37.3878 23.99H36.6828C36.6828 28.019 33.4167 31.285 29.3878 31.285V31.99V32.6951C34.1955 32.6951 38.0928 28.7977 38.0928 23.99H37.3878ZM29.3878 0V0.705015C33.4167 0.705015 36.6828 3.97109 36.6828 8H37.3878H38.0928C38.0928 3.19235 34.1955 -0.705015 29.3878 -0.705015V0ZM8 0V-0.705015C3.19235 -0.705015 -0.705015 3.19235 -0.705015 8H0H0.705015C0.705015 3.97109 3.97109 0.705015 8 0.705015V0Z" fill="black" fill-opacity="0.1" mask="url(#path-1-inside-1_3126_29301)"/>
<path d="M12.071 16.2249C12.0154 16.0752 12.0154 15.9106 12.071 15.761C12.6119 14.4493 13.5302 13.3278 14.7093 12.5386C15.8885 11.7494 17.2754 11.3281 18.6942 11.3281C20.1131 11.3281 21.5 11.7494 22.6791 12.5386C23.8583 13.3278 24.7765 14.4493 25.3175 15.761C25.373 15.9106 25.373 16.0752 25.3175 16.2249C24.7765 17.5365 23.8583 18.6581 22.6791 19.4473C21.5 20.2364 20.1131 20.6577 18.6942 20.6577C17.2754 20.6577 15.8885 20.2364 14.7093 19.4473C13.5302 18.6581 12.6119 17.5365 12.071 16.2249Z" stroke="#0A0A0A" stroke-width="1.33292" stroke-linecap="round" stroke-linejoin="round"/>
<path d="M18.6947 17.9948C19.7989 17.9948 20.6941 17.0997 20.6941 15.9955C20.6941 14.8912 19.7989 13.9961 18.6947 13.9961C17.5905 13.9961 16.6953 14.8912 16.6953 15.9955C16.6953 17.0997 17.5905 17.9948 18.6947 17.9948Z" stroke="#0A0A0A" stroke-width="1.33292" stroke-linecap="round" stroke-linejoin="round"/>
</svg>
