<svg width="16" height="16" viewBox="0 0 16 16" fill="none" xmlns="http://www.w3.org/2000/svg">
<g clip-path="url(#clip0_3126_28714)">
<path d="M9.99707 1.33203H3.99893C3.64542 1.33203 3.30639 1.47246 3.05642 1.72243C2.80645 1.9724 2.66602 2.31144 2.66602 2.66495V13.3283C2.66602 13.6818 2.80645 14.0208 3.05642 14.2708C3.30639 14.5208 3.64542 14.6612 3.99893 14.6612H11.9964C12.35 14.6612 12.689 14.5208 12.939 14.2708C13.1889 14.0208 13.3294 13.6818 13.3294 13.3283V4.66433L9.99707 1.33203Z" stroke="white" stroke-width="1.33292" stroke-linecap="round" stroke-linejoin="round"/>
<path d="M9.33008 1.33203V3.99787C9.33008 4.35138 9.47051 4.69041 9.72048 4.94038C9.97045 5.19035 10.3095 5.33079 10.663 5.33079H13.3288" stroke="white" stroke-width="1.33292" stroke-linecap="round" stroke-linejoin="round"/>
<path d="M5.99805 9.99698L7.33097 11.3299L9.9968 8.66406" stroke="white" stroke-width="1.33292" stroke-linecap="round" stroke-linejoin="round"/>
</g>
<defs>
<clipPath id="clip0_3126_28714">
<rect width="15.995" height="15.995" fill="white"/>
</clipPath>
</defs>
</svg>
