<svg width="16" height="16" viewBox="0 0 16 16" fill="none" xmlns="http://www.w3.org/2000/svg">
<g clip-path="url(#clip0_3126_29281)">
<path d="M10.8281 5.17188C11.5766 5.92159 11.9969 6.93765 11.9969 7.997C11.9969 9.05634 11.5766 10.0724 10.8281 10.8221" stroke="#E7000B" stroke-width="1.33292" stroke-linecap="round" stroke-linejoin="round"/>
<path d="M12.7129 3.28906C13.9611 4.5387 14.6622 6.2327 14.6622 7.99893C14.6622 9.76516 13.9611 11.4592 12.7129 12.7088" stroke="#E7000B" stroke-width="1.33292" stroke-linecap="round" stroke-linejoin="round"/>
<path d="M3.28134 12.7088C2.03314 11.4592 1.33203 9.76516 1.33203 7.99893C1.33203 6.2327 2.03314 4.5387 3.28134 3.28906" stroke="#E7000B" stroke-width="1.33292" stroke-linecap="round" stroke-linejoin="round"/>
<path d="M5.16683 10.8221C4.4184 10.0724 3.99805 9.05634 3.99805 7.997C3.99805 6.93765 4.4184 5.92159 5.16683 5.17188" stroke="#E7000B" stroke-width="1.33292" stroke-linecap="round" stroke-linejoin="round"/>
<path d="M7.99698 9.3299C8.73313 9.3299 9.3299 8.73313 9.3299 7.99698C9.3299 7.26083 8.73313 6.66406 7.99698 6.66406C7.26083 6.66406 6.66406 7.26083 6.66406 7.99698C6.66406 8.73313 7.26083 9.3299 7.99698 9.3299Z" stroke="#E7000B" stroke-width="1.33292" stroke-linecap="round" stroke-linejoin="round"/>
</g>
<defs>
<clipPath id="clip0_3126_29281">
<rect width="15.995" height="15.995" fill="white"/>
</clipPath>
</defs>
</svg>
