<svg width="20" height="20" viewBox="0 0 20 20" fill="none" xmlns="http://www.w3.org/2000/svg">
<path d="M13.334 11.668V13.5013L14.6673 14.3346" stroke="#E7000B" stroke-width="1.66667" stroke-linecap="round" stroke-linejoin="round"/>
<path d="M13.334 1.66797V5.0013" stroke="#E7000B" stroke-width="1.66667" stroke-linecap="round" stroke-linejoin="round"/>
<path d="M17.5 6.2487V4.9987C17.5 4.55667 17.3244 4.13275 17.0118 3.82019C16.6993 3.50763 16.2754 3.33203 15.8333 3.33203H4.16667C3.72464 3.33203 3.30072 3.50763 2.98816 3.82019C2.67559 4.13275 2.5 4.55667 2.5 4.9987V16.6654C2.5 17.1074 2.67559 17.5313 2.98816 17.8439C3.30072 18.1564 3.72464 18.332 4.16667 18.332H7.08333" stroke="#E7000B" stroke-width="1.66667" stroke-linecap="round" stroke-linejoin="round"/>
<path d="M2.5 8.33203H6.66667" stroke="#E7000B" stroke-width="1.66667" stroke-linecap="round" stroke-linejoin="round"/>
<path d="M6.66602 1.66797V5.0013" stroke="#E7000B" stroke-width="1.66667" stroke-linecap="round" stroke-linejoin="round"/>
<path d="M13.334 18.332C16.0954 18.332 18.334 16.0935 18.334 13.332C18.334 10.5706 16.0954 8.33203 13.334 8.33203C10.5726 8.33203 8.33398 10.5706 8.33398 13.332C8.33398 16.0935 10.5726 18.332 13.334 18.332Z" stroke="#E7000B" stroke-width="1.66667" stroke-linecap="round" stroke-linejoin="round"/>
</svg>
