<svg width="16" height="16" viewBox="0 0 16 16" fill="none" xmlns="http://www.w3.org/2000/svg">
<g clip-path="url(#clip0_3126_29355)">
<path d="M13.3294 8.66338C13.3294 11.9957 10.9968 13.6618 8.22429 14.6282C8.07911 14.6774 7.92141 14.675 7.77776 14.6215C4.99862 13.6618 2.66602 11.9957 2.66602 8.66338V3.99817C2.66602 3.82141 2.73623 3.6519 2.86122 3.52691C2.9862 3.40192 3.15572 3.33171 3.33247 3.33171C4.66539 3.33171 6.33154 2.53196 7.49118 1.51894C7.63237 1.39831 7.81198 1.33203 7.99769 1.33203C8.1834 1.33203 8.36301 1.39831 8.5042 1.51894C9.6705 2.53862 11.33 3.33171 12.6629 3.33171C12.8397 3.33171 13.0092 3.40192 13.1342 3.52691C13.2591 3.6519 13.3294 3.82141 13.3294 3.99817V8.66338Z" stroke="#E7000B" stroke-width="1.33292" stroke-linecap="round" stroke-linejoin="round"/>
</g>
<defs>
<clipPath id="clip0_3126_29355">
<rect width="15.995" height="15.995" fill="white"/>
</clipPath>
</defs>
</svg>
