<svg width="28" height="28" viewBox="0 0 28 28" fill="none" xmlns="http://www.w3.org/2000/svg">
<rect width="28" height="28" rx="14" fill="#155DFC" fill-opacity="0.1"/>
<path d="M9.5 6C8.83696 6 8.20107 6.26339 7.73223 6.73223C7.26339 7.20107 7 7.83696 7 8.5V17.5C7 18.318 7.393 19.044 8 19.5V21.5C8 21.6326 8.05268 21.7598 8.14645 21.8536C8.24021 21.9473 8.36739 22 8.5 22H10.5C10.6326 22 10.7598 21.9473 10.8536 21.8536C10.9473 21.7598 11 21.6326 11 21.5V20H17V21.5C17 21.6326 17.0527 21.7598 17.1464 21.8536C17.2402 21.9473 17.3674 22 17.5 22H19.5C19.6326 22 19.7598 21.9473 19.8536 21.8536C19.9473 21.7598 20 21.6326 20 21.5V19.5C20.607 19.044 21 18.318 21 17.5V8.5C21 7.83696 20.7366 7.20107 20.2678 6.73223C19.7989 6.26339 19.163 6 18.5 6H9.5ZM9 9C9 8.73478 9.10536 8.48043 9.29289 8.29289C9.48043 8.10536 9.73478 8 10 8H18C18.2652 8 18.5196 8.10536 18.7071 8.29289C18.8946 8.48043 19 8.73478 19 9V12.9C19 13.525 18.438 13.992 17.83 13.894C16.925 13.747 15.208 13.5 14 13.5C12.792 13.5 11.075 13.747 10.17 13.894C10.0259 13.9175 9.87842 13.9093 9.73776 13.8702C9.5971 13.8311 9.46663 13.7618 9.35536 13.6673C9.24409 13.5728 9.15469 13.4552 9.09333 13.3227C9.03197 13.1902 9.00013 13.046 9 12.9V9ZM10 18C9.73478 18 9.48043 17.8946 9.29289 17.7071C9.10536 17.5196 9 17.2652 9 17C9 16.7348 9.10536 16.4804 9.29289 16.2929C9.48043 16.1054 9.73478 16 10 16C10.2652 16 10.5196 16.1054 10.7071 16.2929C10.8946 16.4804 11 16.7348 11 17C11 17.2652 10.8946 17.5196 10.7071 17.7071C10.5196 17.8946 10.2652 18 10 18ZM18 18C17.7348 18 17.4804 17.8946 17.2929 17.7071C17.1054 17.5196 17 17.2652 17 17C17 16.7348 17.1054 16.4804 17.2929 16.2929C17.4804 16.1054 17.7348 16 18 16C18.2652 16 18.5196 16.1054 18.7071 16.2929C18.8946 16.4804 19 16.7348 19 17C19 17.2652 18.8946 17.5196 18.7071 17.7071C18.5196 17.8946 18.2652 18 18 18ZM13 16H15C15.2652 16 15.5196 16.1054 15.7071 16.2929C15.8946 16.4804 16 16.7348 16 17C16 17.2652 15.8946 17.5196 15.7071 17.7071C15.5196 17.8946 15.2652 18 15 18H13C12.7348 18 12.4804 17.8946 12.2929 17.7071C12.1054 17.5196 12 17.2652 12 17C12 16.7348 12.1054 16.4804 12.2929 16.2929C12.4804 16.1054 12.7348 16 13 16Z" fill="#0064E1"/>
</svg>
