<svg width="14" height="14" viewBox="0 0 14 14" fill="none" xmlns="http://www.w3.org/2000/svg">
<path d="M5.55977 2.31522L9.93477 6.69023C9.97545 6.73086 10.0077 6.77911 10.0297 6.83222C10.0518 6.88533 10.0631 6.94226 10.0631 6.99976C10.0631 7.05725 10.0518 7.11418 10.0297 7.16729C10.0077 7.2204 9.97545 7.26866 9.93477 7.30929L5.55977 11.6843C5.47768 11.7664 5.36634 11.8125 5.25024 11.8125C5.13415 11.8125 5.0228 11.7664 4.94071 11.6843C4.85862 11.6022 4.8125 11.4909 4.8125 11.3748C4.8125 11.2587 4.85862 11.1473 4.94071 11.0652L9.00673 6.99976L4.94071 2.93429C4.90006 2.89364 4.86782 2.84538 4.84582 2.79227C4.82382 2.73916 4.8125 2.68224 4.8125 2.62476C4.8125 2.56727 4.82382 2.51035 4.84582 2.45724C4.86782 2.40413 4.90006 2.35587 4.94071 2.31522C4.98136 2.27458 5.02962 2.24233 5.08273 2.22034C5.13584 2.19834 5.19276 2.18701 5.25024 2.18701C5.30773 2.18701 5.36465 2.19834 5.41776 2.22034C5.47087 2.24233 5.51913 2.27458 5.55977 2.31522Z" fill="#031B15"/>
</svg>
