<svg width="16" height="22" viewBox="0 0 16 22" fill="none" xmlns="http://www.w3.org/2000/svg">
<g clip-path="url(#clip0_2569_17501)">
<path d="M2 2.5H6.58789C6.79476 3.08128 7.34926 3.5 8 3.5C8.65074 3.5 9.20524 3.08128 9.41211 2.5H14C14.8239 2.5 15.5 3.17614 15.5 4V20C15.5 20.8239 14.8239 21.5 14 21.5H2C1.17614 21.5 0.5 20.8239 0.5 20V4C0.5 3.17614 1.17614 2.5 2 2.5Z" stroke="#1A387D"/>
<path d="M9 2C9 2.55 8.55 3 8 3C7.45 3 7 2.55 7 2H3.5V4C3.5 4.55 3.95 5 4.5 5H11.5C12.05 5 12.5 4.55 12.5 4V2H9Z" fill="#1A387D"/>
<path d="M8 0C6.9 0 6 0.9 6 2C6 3.1 6.9 4 8 4C9.1 4 10 3.1 10 2C10 0.9 9.1 0 8 0ZM8 3C7.45 3 7 2.55 7 2C7 1.45 7.45 1 8 1C8.55 1 9 1.45 9 2C9 2.55 8.55 3 8 3Z" fill="#1A387D"/>
<path d="M11.2992 9.30078L6.79922 13.8008L4.69922 11.6508L3.44922 12.9008L6.84922 16.2508L12.5492 10.5508L11.2992 9.30078Z" fill="#1A387D"/>
</g>
<defs>
<clipPath id="clip0_2569_17501">
<rect width="16" height="22" fill="white"/>
</clipPath>
</defs>
</svg>
