<svg width="15" height="19" viewBox="0 0 15 19" fill="none" xmlns="http://www.w3.org/2000/svg">
<path d="M9.70898 0.5H13.5362V4.32724" fill="white"/>
<path d="M9.70898 0.5H13.5362V4.32724" stroke="white" stroke-linecap="round" stroke-linejoin="round"/>
<path d="M12.9385 0.5L7.53256 5.90598C7.44313 5.99364 7.3229 6.04274 7.19767 6.04274C7.07245 6.04274 6.95222 5.99364 6.86279 5.90598L4.66213 3.70532C4.5727 3.61766 4.45247 3.56856 4.32724 3.56856C4.20202 3.56856 4.08179 3.61766 3.99236 3.70532L0.5 7.19767" fill="white"/>
<path d="M12.9385 0.5L7.53256 5.90598C7.44313 5.99364 7.3229 6.04274 7.19767 6.04274C7.07245 6.04274 6.95222 5.99364 6.86279 5.90598L4.66213 3.70532C4.5727 3.61766 4.45247 3.56856 4.32724 3.56856C4.20202 3.56856 4.08179 3.61766 3.99236 3.70532L0.5 7.19767" stroke="white" stroke-linecap="round" stroke-linejoin="round"/>
<path d="M10.5467 8.19922C10.5467 7.64693 10.9944 7.19922 11.5467 7.19922H13.3141C13.8664 7.19922 14.3141 7.64693 14.3141 8.19922V17.5015C14.3141 18.0538 13.8664 18.5015 13.3141 18.5015H11.5467C10.9944 18.5015 10.5467 18.0538 10.5467 17.5015V8.19922Z" fill="white"/>
<path d="M9.29088 10.7108C9.29088 10.1586 8.84316 9.71085 8.29088 9.71085H6.52344C5.97115 9.71085 5.52344 10.1586 5.52344 10.7108V17.5015C5.52344 18.0538 5.97115 18.5015 6.52344 18.5015H8.29088C8.84316 18.5015 9.29088 18.0538 9.29088 17.5015V10.7108Z" fill="white"/>
<path d="M3.26744 12.2227H1.5C0.947715 12.2227 0.5 12.6704 0.5 13.2227V17.5017C0.5 18.054 0.947716 18.5017 1.5 18.5017H3.26744C3.81973 18.5017 4.26744 18.054 4.26744 17.5017V13.2227C4.26744 12.6704 3.81973 12.2227 3.26744 12.2227Z" fill="white"/>
</svg>
