<svg width="16" height="16" viewBox="0 0 16 16" fill="none" xmlns="http://www.w3.org/2000/svg">
<path d="M3.5 0C2.83696 0 2.20107 0.263392 1.73223 0.732233C1.26339 1.20107 1 1.83696 1 2.5V11.5C1 12.318 1.393 13.044 2 13.5V15.5C2 15.6326 2.05268 15.7598 2.14645 15.8536C2.24021 15.9473 2.36739 16 2.5 16H4.5C4.63261 16 4.75979 15.9473 4.85355 15.8536C4.94732 15.7598 5 15.6326 5 15.5V14H11V15.5C11 15.6326 11.0527 15.7598 11.1464 15.8536C11.2402 15.9473 11.3674 16 11.5 16H13.5C13.6326 16 13.7598 15.9473 13.8536 15.8536C13.9473 15.7598 14 15.6326 14 15.5V13.5C14.607 13.044 15 12.318 15 11.5V2.5C15 1.83696 14.7366 1.20107 14.2678 0.732233C13.7989 0.263392 13.163 0 12.5 0L3.5 0ZM3 3C3 2.73478 3.10536 2.48043 3.29289 2.29289C3.48043 2.10536 3.73478 2 4 2H12C12.2652 2 12.5196 2.10536 12.7071 2.29289C12.8946 2.48043 13 2.73478 13 3V6.9C13 7.525 12.438 7.992 11.83 7.894C10.925 7.747 9.208 7.5 8 7.5C6.792 7.5 5.075 7.747 4.17 7.894C4.0259 7.91746 3.87842 7.90934 3.73776 7.8702C3.5971 7.83106 3.46663 7.76183 3.35536 7.6673C3.24409 7.57277 3.15469 7.4552 3.09333 7.32271C3.03197 7.19023 3.00013 7.046 3 6.9V3ZM4 12C3.73478 12 3.48043 11.8946 3.29289 11.7071C3.10536 11.5196 3 11.2652 3 11C3 10.7348 3.10536 10.4804 3.29289 10.2929C3.48043 10.1054 3.73478 10 4 10C4.26522 10 4.51957 10.1054 4.70711 10.2929C4.89464 10.4804 5 10.7348 5 11C5 11.2652 4.89464 11.5196 4.70711 11.7071C4.51957 11.8946 4.26522 12 4 12ZM12 12C11.7348 12 11.4804 11.8946 11.2929 11.7071C11.1054 11.5196 11 11.2652 11 11C11 10.7348 11.1054 10.4804 11.2929 10.2929C11.4804 10.1054 11.7348 10 12 10C12.2652 10 12.5196 10.1054 12.7071 10.2929C12.8946 10.4804 13 10.7348 13 11C13 11.2652 12.8946 11.5196 12.7071 11.7071C12.5196 11.8946 12.2652 12 12 12ZM7 10H9C9.26522 10 9.51957 10.1054 9.70711 10.2929C9.89464 10.4804 10 10.7348 10 11C10 11.2652 9.89464 11.5196 9.70711 11.7071C9.51957 11.8946 9.26522 12 9 12H7C6.73478 12 6.48043 11.8946 6.29289 11.7071C6.10536 11.5196 6 11.2652 6 11C6 10.7348 6.10536 10.4804 6.29289 10.2929C6.48043 10.1054 6.73478 10 7 10Z" fill="#1A387D"/>
</svg>
