<svg width="16" height="17" viewBox="0 0 16 17" fill="none" xmlns="http://www.w3.org/2000/svg">
<path d="M7.60647 0C7.84881 0.000267002 8.0819 0.0924414 8.25812 0.25769C8.43434 0.422939 8.54038 0.648789 8.55459 0.889095C8.56879 1.1294 8.49008 1.36602 8.33453 1.55062C8.17899 1.73521 7.95836 1.85385 7.71771 1.88228L7.60647 1.88889H2.85242C2.61954 1.88892 2.39477 1.97385 2.22073 2.12756C2.0467 2.28128 1.93552 2.4931 1.90827 2.72283L1.90162 2.83333V14.1667C1.90165 14.398 1.98715 14.6213 2.1419 14.7941C2.29665 14.967 2.5099 15.0774 2.74118 15.1045L2.85242 15.1111H7.13106C7.3734 15.1114 7.6065 15.2036 7.78272 15.3688C7.95894 15.534 8.06498 15.7599 8.07918 16.0002C8.09338 16.2405 8.01467 16.4771 7.85913 16.6617C7.70359 16.8463 7.48295 16.965 7.24231 16.9934L7.13106 17H2.85242C2.12486 17 1.42477 16.7239 0.895413 16.2281C0.366055 15.7323 0.0474382 15.0543 0.00475415 14.3329L4.43119e-09 14.1667V2.83333C-4.05251e-05 2.11063 0.277945 1.41524 0.77708 0.88942C1.27621 0.363605 1.95877 0.0471207 2.68508 0.00472233L2.85242 0H7.60647ZM13.0327 5.16044L15.7216 7.83228C15.8999 8.00939 16 8.24957 16 8.5C16 8.75043 15.8999 8.99061 15.7216 9.16772L13.0327 11.8396C12.8543 12.0166 12.6124 12.1161 12.3602 12.116C12.108 12.1159 11.8661 12.0163 11.6878 11.8391C11.5095 11.6619 11.4094 11.4216 11.4095 11.171C11.4096 10.9205 11.5099 10.6803 11.6883 10.5032L12.7541 9.44444H7.60647C7.3543 9.44444 7.11245 9.34494 6.93414 9.16782C6.75583 8.9907 6.65566 8.75048 6.65566 8.5C6.65566 8.24952 6.75583 8.00929 6.93414 7.83218C7.11245 7.65506 7.3543 7.55556 7.60647 7.55556H12.7541L11.6883 6.49683C11.5099 6.31974 11.4096 6.07951 11.4095 5.82897C11.4094 5.57844 11.5095 5.33813 11.6878 5.16092C11.8661 4.9837 12.108 4.88409 12.3602 4.884C12.6124 4.88391 12.8543 4.98335 13.0327 5.16044Z" fill="white"/>
</svg>
