<svg width="20" height="20" viewBox="0 0 20 20" fill="none" xmlns="http://www.w3.org/2000/svg">
<path d="M10.8409 4.97727V11.3409H9.25V4.97727H6.86364L10.0455 1L13.2273 4.97727H10.8409ZM5.27273 4.18182V6.33591C4.46269 7.25441 3.93489 8.38714 3.75266 9.59817C3.57043 10.8092 3.74152 12.0471 4.2454 13.1633C4.74927 14.2795 5.56452 15.2266 6.59333 15.891C7.62214 16.5553 8.82079 16.9087 10.0455 16.9087C11.2701 16.9087 12.4688 16.5553 13.4976 15.891C14.5264 15.2266 15.3416 14.2795 15.8455 13.1633C16.3494 12.0471 16.5205 10.8092 16.3382 9.59817C16.156 8.38714 15.6282 7.25441 14.8182 6.33591V4.18182C15.8066 4.92233 16.6087 5.88302 17.1611 6.98765C17.7134 8.09228 18.0006 9.31044 18 10.5455C18 14.9388 14.4387 18.5 10.0455 18.5C5.65216 18.5 2.09091 14.9388 2.09091 10.5455C2.09029 9.31044 2.37754 8.09228 2.92985 6.98765C3.48217 5.88302 4.28435 4.92233 5.27273 4.18182Z" fill="#4A5A55"/>
</svg>
