<svg width="16" height="18" viewBox="0 0 16 18" fill="none" xmlns="http://www.w3.org/2000/svg">
<path d="M11.4 0.818182C11.4 0.601187 11.4843 0.393079 11.6343 0.23964C11.7843 0.086201 11.9878 0 12.2 0H15.2C15.4122 0 15.6157 0.086201 15.7657 0.23964C15.9157 0.393079 16 0.601187 16 0.818182V4.90909C16 5.12609 15.9157 5.33419 15.7657 5.48763C15.6157 5.64107 15.4122 5.72727 15.2 5.72727H14.4V17.3864C14.4 17.5491 14.3368 17.7052 14.2243 17.8203C14.1117 17.9354 13.9591 18 13.8 18C13.6409 18 13.4883 17.9354 13.3757 17.8203C13.2632 17.7052 13.2 17.5491 13.2 17.3864V5.72727H12.2C11.9878 5.72727 11.7843 5.64107 11.6343 5.48763C11.4843 5.33419 11.4 5.12609 11.4 4.90909V0.818182ZM10.24 1.63636C10.3616 1.63636 10.4816 1.64482 10.6 1.66173V2.91273C10.4825 2.88117 10.3615 2.86495 10.24 2.86445H4.1608C3.8485 2.86443 3.54515 2.9712 3.29901 3.16778C3.05287 3.36437 2.87807 3.63948 2.8024 3.94936L2.1688 6.54545H12.4V7.77273H1.8C1.64087 7.77273 1.48826 7.83738 1.37574 7.95246C1.26321 8.06754 1.2 8.22362 1.2 8.38636V13.0909H12.4V14.3182H11.5992L11.6 15.3385C11.6 15.4514 11.6896 15.543 11.8 15.543H12.4V16.7703H11.8C11.4287 16.7703 11.0726 16.6194 10.8101 16.3509C10.5475 16.0824 10.4 15.7182 10.4 15.3385L10.3992 14.3182H4.0032V15.3385C4.0032 15.7182 3.8557 16.0824 3.59315 16.3509C3.3306 16.6194 2.9745 16.7703 2.6032 16.7703H1.4C1.0287 16.7703 0.672602 16.6194 0.410051 16.3509C0.1475 16.0824 0 15.7182 0 15.3385V8.38636C0 7.71955 0.3464 7.13536 0.8656 6.813L1.0312 6.13636H0.6C0.45501 6.13636 0.314926 6.08266 0.205655 5.98519C0.0963846 5.88773 0.0253186 5.75309 0.00559998 5.60618L0 5.52273C6.11432e-06 5.37444 0.0525141 5.23117 0.147814 5.11942C0.243113 5.00767 0.374757 4.93499 0.5184 4.91482L0.6 4.90909H1.3304L1.6392 3.65073C1.7798 3.07537 2.10442 2.5646 2.56146 2.19961C3.0185 1.83462 3.58173 1.63637 4.1616 1.63636H10.24ZM2.8024 14.3182H1.1992L1.2 15.3385C1.2 15.4514 1.2896 15.543 1.4 15.543H2.6032C2.65624 15.543 2.70711 15.5215 2.74462 15.4831C2.78213 15.4447 2.8032 15.3927 2.8032 15.3385L2.8024 14.3182ZM5.7984 10.6364H8.6C8.75195 10.6366 8.89815 10.6958 9.00908 10.802C9.12 10.9082 9.1874 11.0535 9.19765 11.2086C9.20791 11.3636 9.16026 11.5169 9.06433 11.6374C8.9684 11.7579 8.83133 11.8367 8.6808 11.8579L8.6 11.8636H5.7984C5.64638 11.8636 5.50005 11.8045 5.38897 11.6984C5.27789 11.5922 5.21034 11.4469 5.19998 11.2918C5.18962 11.1367 5.23721 10.9834 5.33315 10.8628C5.42908 10.7421 5.5662 10.6633 5.7168 10.6421L5.7984 10.6364ZM11.2 9C11.4122 9 11.6157 9.0862 11.7657 9.23964C11.9157 9.39308 12 9.60119 12 9.81818C12 10.0352 11.9157 10.2433 11.7657 10.3967C11.6157 10.5502 11.4122 10.6364 11.2 10.6364C10.9878 10.6364 10.7843 10.5502 10.6343 10.3967C10.4843 10.2433 10.4 10.0352 10.4 9.81818C10.4 9.60119 10.4843 9.39308 10.6343 9.23964C10.7843 9.0862 10.9878 9 11.2 9ZM3.2 9C3.41217 9 3.61566 9.0862 3.76569 9.23964C3.91571 9.39308 4 9.60119 4 9.81818C4 10.0352 3.91571 10.2433 3.76569 10.3967C3.61566 10.5502 3.41217 10.6364 3.2 10.6364C2.98783 10.6364 2.78434 10.5502 2.63431 10.3967C2.48429 10.2433 2.4 10.0352 2.4 9.81818C2.4 9.60119 2.48429 9.39308 2.63431 9.23964C2.78434 9.0862 2.98783 9 3.2 9Z" fill="#1A387D"/>
</svg>
