<svg width="16" height="11" viewBox="0 0 16 11" fill="none" xmlns="http://www.w3.org/2000/svg">
<g clip-path="url(#clip0_2569_17466)">
<path d="M12.3636 9.96875C12.0743 9.96875 11.7968 9.8601 11.5922 9.6667C11.3877 9.47331 11.2727 9.211 11.2727 8.9375C11.2727 8.664 11.3877 8.40169 11.5922 8.2083C11.7968 8.0149 12.0743 7.90625 12.3636 7.90625C12.653 7.90625 12.9304 8.0149 13.135 8.2083C13.3396 8.40169 13.4545 8.664 13.4545 8.9375C13.4545 9.211 13.3396 9.47331 13.135 9.6667C12.9304 9.8601 12.653 9.96875 12.3636 9.96875ZM13.4545 3.78125L14.88 5.5H11.6364V3.78125M3.63636 9.96875C3.34704 9.96875 3.06956 9.8601 2.86497 9.6667C2.66039 9.47331 2.54545 9.211 2.54545 8.9375C2.54545 8.664 2.66039 8.40169 2.86497 8.2083C3.06956 8.0149 3.34704 7.90625 3.63636 7.90625C3.92569 7.90625 4.20317 8.0149 4.40775 8.2083C4.61234 8.40169 4.72727 8.664 4.72727 8.9375C4.72727 9.211 4.61234 9.47331 4.40775 9.6667C4.20317 9.8601 3.92569 9.96875 3.63636 9.96875ZM13.8182 2.75H11.6364V0H1.45455C0.647273 0 0 0.611875 0 1.375V8.9375H1.45455C1.45455 9.48451 1.68442 10.0091 2.09359 10.3959C2.50276 10.7827 3.05771 11 3.63636 11C4.21502 11 4.76997 10.7827 5.17914 10.3959C5.58831 10.0091 5.81818 9.48451 5.81818 8.9375H10.1818C10.1818 9.48451 10.4117 10.0091 10.8209 10.3959C11.23 10.7827 11.785 11 12.3636 11C12.9423 11 13.4972 10.7827 13.9064 10.3959C14.3156 10.0091 14.5455 9.48451 14.5455 8.9375H16V5.5L13.8182 2.75Z" fill="#1A387D"/>
</g>
<defs>
<clipPath id="clip0_2569_17466">
<rect width="16" height="11" fill="white"/>
</clipPath>
</defs>
</svg>
