<svg width="20" height="20" viewBox="0 0 20 20" fill="none" xmlns="http://www.w3.org/2000/svg">
<path d="M9.99942 6.25161C9.25774 6.25161 8.53271 6.47155 7.91603 6.8836C7.29934 7.29566 6.8187 7.88133 6.53487 8.56655C6.25104 9.25177 6.17678 10.0058 6.32147 10.7332C6.46617 11.4606 6.82332 12.1288 7.34777 12.6533C7.87221 13.1777 8.5404 13.5349 9.26783 13.6796C9.99526 13.8243 10.7493 13.75 11.4345 13.4662C12.1197 13.1823 12.7054 12.7017 13.1174 12.085C13.5295 11.4683 13.7494 10.7433 13.7494 10.0016C13.7484 9.00737 13.353 8.05414 12.6499 7.3511C11.9469 6.64807 10.9937 6.25265 9.99942 6.25161ZM9.99942 12.5016C9.50496 12.5016 9.02161 12.355 8.61049 12.0803C8.19937 11.8056 7.87894 11.4151 7.68972 10.9583C7.5005 10.5015 7.45099 9.99884 7.54745 9.51389C7.64392 9.02893 7.88202 8.58348 8.23165 8.23385C8.58128 7.88421 9.02674 7.64611 9.51169 7.54965C9.99664 7.45319 10.4993 7.50269 10.9561 7.69191C11.4129 7.88113 11.8034 8.20156 12.0781 8.61269C12.3528 9.02381 12.4994 9.50716 12.4994 10.0016C12.4994 10.6647 12.236 11.3005 11.7672 11.7694C11.2983 12.2382 10.6625 12.5016 9.99942 12.5016ZM18.5885 8.37739C18.5711 8.28938 18.5349 8.20615 18.4825 8.13335C18.43 8.06056 18.3625 7.99991 18.2846 7.95552L15.9541 6.62739L15.9447 4.00083C15.9444 3.91037 15.9245 3.82106 15.8864 3.73905C15.8482 3.65704 15.7927 3.58429 15.7236 3.52583C14.8783 2.81075 13.9048 2.26276 12.8549 1.91099C12.7722 1.883 12.6846 1.87265 12.5977 1.88059C12.5107 1.88852 12.4264 1.91458 12.3502 1.95708L9.99942 3.27114L7.64629 1.95474C7.57 1.912 7.4856 1.88574 7.39853 1.87767C7.31146 1.8696 7.22367 1.87988 7.14082 1.90786C6.09172 2.2622 5.11933 2.81229 4.2752 3.52896C4.20627 3.58733 4.15081 3.65995 4.11264 3.74182C4.07447 3.82368 4.0545 3.91285 4.0541 4.00318L4.04239 6.63208L1.71192 7.96021C1.63395 8.00459 1.56645 8.06525 1.51401 8.13804C1.46157 8.21084 1.42542 8.29407 1.40801 8.38208C1.19473 9.45387 1.19473 10.5572 1.40801 11.629C1.42542 11.717 1.46157 11.8002 1.51401 11.873C1.56645 11.9458 1.63395 12.0064 1.71192 12.0508L4.04239 13.379L4.05176 16.0055C4.05204 16.096 4.07196 16.1853 4.11013 16.2673C4.1483 16.3493 4.20382 16.4221 4.27285 16.4805C5.11822 17.1956 6.09173 17.7436 7.1416 18.0954C7.22428 18.1233 7.3119 18.1337 7.39883 18.1258C7.48575 18.1178 7.57005 18.0918 7.64629 18.0493L9.99942 16.7321L12.3525 18.0485C12.4457 18.1004 12.5506 18.1273 12.6572 18.1266C12.7255 18.1266 12.7933 18.1155 12.858 18.0938C13.907 17.7399 14.8794 17.1904 15.7236 16.4743C15.7926 16.4159 15.848 16.3433 15.8862 16.2614C15.9244 16.1795 15.9443 16.0904 15.9447 16.0001L15.9564 13.3711L18.2869 12.043C18.3649 11.9986 18.4324 11.938 18.4848 11.8652C18.5373 11.7924 18.5734 11.7092 18.5908 11.6211C18.8029 10.5502 18.8021 9.44801 18.5885 8.37739ZM17.4166 11.1047L15.1846 12.3743C15.0868 12.4299 15.0058 12.5108 14.9502 12.6086C14.9049 12.6868 14.8572 12.7696 14.8088 12.8477C14.7468 12.9462 14.7138 13.0602 14.7135 13.1766L14.7018 15.6961C14.1018 16.1673 13.4334 16.544 12.7197 16.8133L10.4682 15.5586C10.3747 15.5069 10.2695 15.48 10.1627 15.4805H10.1479C10.0533 15.4805 9.95801 15.4805 9.86348 15.4805C9.75167 15.4777 9.64113 15.5047 9.54317 15.5586L7.29004 16.8165C6.57481 16.5492 5.90459 16.1743 5.30254 15.7047L5.29395 13.1891C5.29356 13.0725 5.26055 12.9583 5.19864 12.8594C5.1502 12.7813 5.10254 12.7032 5.05801 12.6204C5.00279 12.5211 4.92183 12.4385 4.82364 12.3813L2.58926 11.1086C2.47363 10.3772 2.47363 9.63223 2.58926 8.90083L4.81738 7.62896C4.91518 7.57335 4.99615 7.49238 5.05176 7.39458C5.09707 7.31646 5.14473 7.23364 5.19317 7.15552C5.25517 7.057 5.2882 6.94302 5.28848 6.82661L5.3002 4.30708C5.90014 3.83595 6.56853 3.45921 7.28223 3.18989L9.53067 4.44458C9.62852 4.49882 9.73914 4.5258 9.85098 4.52271C9.94551 4.52271 10.0408 4.52271 10.1354 4.52271C10.2472 4.5255 10.3577 4.49854 10.4557 4.44458L12.7088 3.18677C13.424 3.45401 14.0942 3.82891 14.6963 4.29849L14.7049 6.81411C14.7053 6.93075 14.7383 7.04495 14.8002 7.1438C14.8486 7.22193 14.8963 7.30005 14.9408 7.38286C14.996 7.48217 15.077 7.56475 15.1752 7.62193L17.4096 8.89458C17.5267 9.62654 17.5281 10.3724 17.4135 11.1047H17.4166Z" fill="#4A5A55"/>
</svg>
