<svg width="16" height="16" viewBox="0 0 16 16" fill="none" xmlns="http://www.w3.org/2000/svg">
<path d="M4.44115 7.11719C4.44115 7.11719 4.68619 9.40435 5.64066 10.3588C6.59513 11.3133 8.88229 11.5583 8.88229 11.5583C8.88229 11.5583 6.59513 11.8034 5.64066 12.7578C4.68619 13.7123 4.44115 15.9995 4.44115 15.9995C4.44115 15.9995 4.19611 13.7123 3.24163 12.7578C2.28716 11.8034 0 11.5583 0 11.5583C0 11.5583 2.28716 11.3133 3.24163 10.3588C4.19611 9.40435 4.44115 7.11719 4.44115 7.11719Z" fill="#031B15"/>
<path d="M10.7849 3.34766C10.7849 3.34766 11.0299 5.63482 11.9844 6.58929C12.9389 7.54376 15.226 7.7888 15.226 7.7888C15.226 7.7888 12.9389 8.03384 11.9844 8.98832C11.0299 9.94279 10.7849 12.23 10.7849 12.23C10.7849 12.23 10.5399 9.94279 9.58538 8.98832C8.63091 8.03384 6.34375 7.7888 6.34375 7.7888C6.34375 7.7888 8.63091 7.54376 9.58538 6.58929C10.5399 5.63482 10.7849 3.34766 10.7849 3.34766Z" fill="#031B15"/>
<path d="M4.44115 0C4.44115 0 4.68619 2.28716 5.64066 3.24163C6.59513 4.19611 8.88229 4.44115 8.88229 4.44115C8.88229 4.44115 6.59513 4.68619 5.64066 5.64066C4.68619 6.59513 4.44115 8.88229 4.44115 8.88229C4.44115 8.88229 4.19611 6.59513 3.24163 5.64066C2.28716 4.68619 0 4.44115 0 4.44115C0 4.44115 2.28716 4.19611 3.24163 3.24163C4.19611 2.28716 4.44115 0 4.44115 0Z" fill="#031B15"/>
</svg>
