<svg width="13" height="15" viewBox="0 0 13 15" fill="none" xmlns="http://www.w3.org/2000/svg">
<path d="M8.00068 4.03912C7.32262 4.03912 6.65979 4.24209 6.096 4.62237C5.53222 5.00265 5.0928 5.54316 4.83332 6.17554C4.57384 6.80792 4.50594 7.50378 4.63823 8.17511C4.77051 8.84645 5.09702 9.46311 5.57648 9.94711C6.05594 10.4311 6.66681 10.7607 7.33184 10.8943C7.99687 11.0278 8.6862 10.9593 9.31264 10.6973C9.93908 10.4354 10.4745 9.9918 10.8512 9.42267C11.2279 8.85354 11.429 8.18443 11.429 7.49994C11.4281 6.58237 11.0666 5.70265 10.4238 5.05382C9.78109 4.405 8.90963 4.04007 8.00068 4.03912ZM8.00068 9.80716C7.54864 9.80716 7.10675 9.67184 6.73089 9.41832C6.35504 9.1648 6.06209 8.80446 5.8891 8.38287C5.71612 7.96128 5.67085 7.49738 5.75904 7.04982C5.84723 6.60227 6.06491 6.19116 6.38455 5.86849C6.70419 5.54582 7.11143 5.32608 7.55479 5.23706C7.99814 5.14803 8.45769 5.19372 8.87532 5.36835C9.29295 5.54298 9.6499 5.8387 9.90104 6.21812C10.1522 6.59754 10.2862 7.04362 10.2862 7.49994C10.2862 8.11185 10.0454 8.6987 9.6168 9.13139C9.18818 9.56407 8.60684 9.80716 8.00068 9.80716ZM15.853 6.00097C15.8371 5.91975 15.804 5.84293 15.7561 5.77575C15.7081 5.70857 15.6464 5.65259 15.5751 5.61163L13.4446 4.38592L13.436 1.9619C13.4357 1.87842 13.4175 1.79599 13.3826 1.7203C13.3477 1.64462 13.297 1.57748 13.2339 1.52353C12.461 0.863593 11.571 0.357857 10.6112 0.0332125C10.5356 0.00738602 10.4555 -0.00217169 10.376 0.005155C10.2966 0.0124817 10.2195 0.0365303 10.1498 0.0757518L8.00068 1.28848L5.8494 0.0735888C5.77966 0.0341464 5.70249 0.00991615 5.62289 0.0024644C5.54329 -0.00498734 5.46303 0.00450521 5.38729 0.0303285C4.42818 0.357346 3.53921 0.86501 2.76748 1.52641C2.70446 1.58029 2.65376 1.64731 2.61887 1.72286C2.58397 1.79841 2.56572 1.8807 2.56535 1.96406L2.55464 4.39025L0.424079 5.61595C0.352799 5.65692 0.291091 5.71289 0.24315 5.78008C0.195208 5.84726 0.162157 5.92407 0.146242 6.0053C-0.0487472 6.99443 -0.0487472 8.01266 0.146242 9.00179C0.162157 9.08302 0.195208 9.15983 0.24315 9.22701C0.291091 9.2942 0.352799 9.35017 0.424079 9.39114L2.55464 10.6168L2.56321 13.0409C2.56347 13.1243 2.58168 13.2068 2.61657 13.2825C2.65147 13.3581 2.70223 13.4253 2.76534 13.4792C3.53819 14.1392 4.42819 14.6449 5.38801 14.9696C5.46359 14.9954 5.5437 15.0049 5.62317 14.9976C5.70264 14.9903 5.7797 14.9662 5.8494 14.927L8.00068 13.7114L10.1519 14.9263C10.2371 14.9742 10.333 14.999 10.4305 14.9984C10.4929 14.9984 10.5549 14.9881 10.6141 14.9681C11.5731 14.6415 12.462 14.1344 13.2339 13.4735C13.2969 13.4196 13.3476 13.3526 13.3825 13.277C13.4174 13.2015 13.4356 13.1192 13.436 13.0358L13.4467 10.6096L15.5773 9.38393C15.6486 9.34296 15.7103 9.28699 15.7582 9.2198C15.8061 9.15262 15.8392 9.07581 15.8551 8.99458C16.049 8.00624 16.0483 6.98903 15.853 6.00097ZM14.7816 8.518L12.741 9.68963C12.6516 9.74095 12.5776 9.81568 12.5268 9.90593C12.4854 9.97803 12.4418 10.0545 12.3975 10.1266C12.3408 10.2175 12.3106 10.3227 12.3104 10.4301L12.2997 12.7553C11.7512 13.1902 11.1401 13.5378 10.4876 13.7864L8.42922 12.6284C8.34376 12.5807 8.24761 12.5559 8.14995 12.5563H8.13638C8.04996 12.5563 7.96282 12.5563 7.8764 12.5563C7.77418 12.5538 7.67312 12.5787 7.58356 12.6284L5.52371 13.7893C4.86984 13.5426 4.25711 13.1966 3.7067 12.7633L3.69884 10.4416C3.69849 10.334 3.66831 10.2286 3.61171 10.1374C3.56742 10.0653 3.52386 9.99318 3.48314 9.91675C3.43267 9.8251 3.35864 9.74888 3.26887 9.69612L1.22616 8.5216C1.12046 7.84661 1.12046 7.15904 1.22616 6.48404L3.26316 5.31025C3.35257 5.25893 3.42659 5.1842 3.47743 5.09395C3.51886 5.02185 3.56242 4.94542 3.60671 4.87332C3.66339 4.7824 3.69359 4.67721 3.69384 4.56978L3.70456 2.24453C4.25304 1.80973 4.86409 1.46204 5.51657 1.2135L7.57214 2.37143C7.6616 2.42149 7.76273 2.44639 7.86497 2.44353C7.95139 2.44353 8.03853 2.44353 8.12495 2.44353C8.22717 2.44611 8.32823 2.42123 8.41779 2.37143L10.4776 1.21061C11.1315 1.45725 11.7442 1.80324 12.2947 2.2366L12.3025 4.55824C12.3029 4.66588 12.333 4.77128 12.3896 4.8625C12.4339 4.9346 12.4775 5.00671 12.5182 5.08313C12.5687 5.17478 12.6427 5.251 12.7325 5.30376L14.7752 6.47828C14.8823 7.15379 14.8835 7.84211 14.7788 8.518H14.7816Z" fill="#031B15"/>
</svg>
