<svg width="16" height="16" viewBox="0 0 16 16" fill="none" xmlns="http://www.w3.org/2000/svg">
<path d="M10 14V10.6667C10 10.4899 9.92976 10.3203 9.80474 10.1953C9.67971 10.0702 9.51014 10 9.33333 10H6.66667C6.48986 10 6.32029 10.0702 6.19526 10.1953C6.07024 10.3203 6 10.4899 6 10.6667V14" stroke="#4A5565" stroke-width="1.33333" stroke-linecap="round" stroke-linejoin="round"/>
<path d="M11.8486 6.87203C11.7097 6.73899 11.5247 6.66473 11.3323 6.66473C11.1399 6.66473 10.955 6.73899 10.816 6.87203C10.506 7.16771 10.094 7.33267 9.66565 7.33267C9.23726 7.33267 8.82531 7.16771 8.51532 6.87203C8.37637 6.73919 8.19155 6.66505 7.99932 6.66505C7.80708 6.66505 7.62226 6.73919 7.48332 6.87203C7.17329 7.16791 6.7612 7.33299 6.33265 7.33299C5.9041 7.33299 5.49201 7.16791 5.18198 6.87203C5.04301 6.73899 4.85804 6.66473 4.66565 6.66473C4.47326 6.66473 4.28829 6.73899 4.14932 6.87203C3.84988 7.15777 3.45483 7.32188 3.04107 7.3324C2.6273 7.34292 2.22443 7.19911 1.91085 6.92895C1.59728 6.6588 1.39545 6.28163 1.34464 5.87086C1.29383 5.46009 1.39769 5.04511 1.63598 4.7067L3.56198 1.91736C3.68419 1.73704 3.84871 1.5894 4.04117 1.48736C4.23363 1.38532 4.44815 1.33199 4.66598 1.33203H11.3326C11.5498 1.33195 11.7638 1.38493 11.9558 1.48636C12.1479 1.58779 12.3123 1.7346 12.4346 1.91403L14.3646 4.7087C14.603 5.04738 14.7067 5.46268 14.6556 5.87366C14.6045 6.28464 14.4022 6.66186 14.0881 6.93183C13.774 7.20179 13.3707 7.34515 12.9567 7.33397C12.5427 7.32279 12.1477 7.15788 11.8486 6.87136" stroke="#4A5565" stroke-width="1.33333" stroke-linecap="round" stroke-linejoin="round"/>
<path d="M2.66602 7.30078V12.6674C2.66602 13.0211 2.80649 13.3602 3.05654 13.6103C3.30659 13.8603 3.64573 14.0008 3.99935 14.0008H11.9993C12.353 14.0008 12.6921 13.8603 12.9422 13.6103C13.1922 13.3602 13.3327 13.0211 13.3327 12.6674V7.30078" stroke="#4A5565" stroke-width="1.33333" stroke-linecap="round" stroke-linejoin="round"/>
</svg>
