<svg width="12" height="12" viewBox="0 0 12 12" fill="none" xmlns="http://www.w3.org/2000/svg">
<g clip-path="url(#clip0_1973_42981)">
<path d="M10.9013 5.0017C11.1296 6.12235 10.9669 7.28742 10.4402 8.3026C9.91352 9.31779 9.05473 10.1217 8.00704 10.5804C6.95935 11.039 5.7861 11.1246 4.68293 10.8229C3.57977 10.5212 2.61338 9.8504 1.94492 8.92241C1.27646 7.99443 0.946343 6.86532 1.00961 5.7234C1.07289 4.58147 1.52572 3.49575 2.29261 2.64729C3.05949 1.79883 4.09407 1.23892 5.22381 1.06093C6.35356 0.882942 7.51017 1.09763 8.50078 1.6692" stroke="#00A63E" stroke-linecap="round" stroke-linejoin="round"/>
<path d="M4.5 5.5L6 7L11 2" stroke="#00A63E" stroke-linecap="round" stroke-linejoin="round"/>
</g>
<defs>
<clipPath id="clip0_1973_42981">
<rect width="12" height="12" fill="white"/>
</clipPath>
</defs>
</svg>
