<svg width="16" height="16" viewBox="0 0 16 16" fill="none" xmlns="http://www.w3.org/2000/svg">
<path d="M9.33398 12.0013V4.0013C9.33398 3.64768 9.19351 3.30854 8.94346 3.05849C8.69341 2.80844 8.35427 2.66797 8.00065 2.66797H2.66732C2.3137 2.66797 1.97456 2.80844 1.72451 3.05849C1.47446 3.30854 1.33398 3.64768 1.33398 4.0013V11.3346C1.33398 11.5114 1.40422 11.681 1.52925 11.806C1.65427 11.9311 1.82384 12.0013 2.00065 12.0013H3.33398" stroke="#4A5565" stroke-width="1.33333" stroke-linecap="round" stroke-linejoin="round"/>
<path d="M10 12H6" stroke="#4A5565" stroke-width="1.33333" stroke-linecap="round" stroke-linejoin="round"/>
<path d="M12.6673 11.9987H14.0007C14.1775 11.9987 14.347 11.9285 14.4721 11.8034C14.5971 11.6784 14.6673 11.5088 14.6673 11.332V8.8987C14.667 8.74741 14.6153 8.60071 14.5207 8.4827L12.2007 5.5827C12.1383 5.50462 12.0592 5.44155 11.9692 5.39816C11.8792 5.35477 11.7806 5.33217 11.6807 5.33203H9.33398" stroke="#4A5565" stroke-width="1.33333" stroke-linecap="round" stroke-linejoin="round"/>
<path d="M11.3333 13.3346C12.0697 13.3346 12.6667 12.7377 12.6667 12.0013C12.6667 11.2649 12.0697 10.668 11.3333 10.668C10.597 10.668 10 11.2649 10 12.0013C10 12.7377 10.597 13.3346 11.3333 13.3346Z" stroke="#4A5565" stroke-width="1.33333" stroke-linecap="round" stroke-linejoin="round"/>
<path d="M4.66732 13.3346C5.4037 13.3346 6.00065 12.7377 6.00065 12.0013C6.00065 11.2649 5.4037 10.668 4.66732 10.668C3.93094 10.668 3.33398 11.2649 3.33398 12.0013C3.33398 12.7377 3.93094 13.3346 4.66732 13.3346Z" stroke="#4A5565" stroke-width="1.33333" stroke-linecap="round" stroke-linejoin="round"/>
</svg>
