<svg width="20" height="20" viewBox="0 0 20 20" fill="none" xmlns="http://www.w3.org/2000/svg">
<path d="M11.666 14.9987V4.9987C11.666 4.55667 11.4904 4.13275 11.1779 3.82019C10.8653 3.50763 10.4414 3.33203 9.99935 3.33203H3.33268C2.89065 3.33203 2.46673 3.50763 2.15417 3.82019C1.84161 4.13275 1.66602 4.55667 1.66602 4.9987V14.1654C1.66602 14.3864 1.75381 14.5983 1.91009 14.7546C2.06637 14.9109 2.27834 14.9987 2.49935 14.9987H4.16602" stroke="#D08700" stroke-width="1.66667" stroke-linecap="round" stroke-linejoin="round"/>
<path d="M12.5 15H7.5" stroke="#D08700" stroke-width="1.66667" stroke-linecap="round" stroke-linejoin="round"/>
<path d="M15.8327 15.0013H17.4993C17.7204 15.0013 17.9323 14.9135 18.0886 14.7572C18.2449 14.6009 18.3327 14.389 18.3327 14.168V11.1263C18.3323 10.9372 18.2677 10.7538 18.1493 10.6063L15.2493 6.9813C15.1714 6.8837 15.0725 6.80487 14.96 6.75063C14.8475 6.6964 14.7242 6.66815 14.5993 6.66797H11.666" stroke="#D08700" stroke-width="1.66667" stroke-linecap="round" stroke-linejoin="round"/>
<path d="M14.1667 16.6654C15.0871 16.6654 15.8333 15.9192 15.8333 14.9987C15.8333 14.0782 15.0871 13.332 14.1667 13.332C13.2462 13.332 12.5 14.0782 12.5 14.9987C12.5 15.9192 13.2462 16.6654 14.1667 16.6654Z" stroke="#D08700" stroke-width="1.66667" stroke-linecap="round" stroke-linejoin="round"/>
<path d="M5.83268 16.6654C6.75316 16.6654 7.49935 15.9192 7.49935 14.9987C7.49935 14.0782 6.75316 13.332 5.83268 13.332C4.91221 13.332 4.16602 14.0782 4.16602 14.9987C4.16602 15.9192 4.91221 16.6654 5.83268 16.6654Z" stroke="#D08700" stroke-width="1.66667" stroke-linecap="round" stroke-linejoin="round"/>
</svg>
