<svg width="16" height="16" viewBox="0 0 16 16" fill="none" xmlns="http://www.w3.org/2000/svg">
<path d="M14.4876 12.0015L9.15426 2.66812C9.03797 2.46292 8.86933 2.29224 8.66555 2.1735C8.46176 2.05475 8.23012 1.99219 7.99426 1.99219C7.7584 1.99219 7.52677 2.05475 7.32298 2.1735C7.11919 2.29224 6.95055 2.46292 6.83426 2.66812L1.50093 12.0015C1.38338 12.205 1.32175 12.4361 1.32227 12.6711C1.32279 12.9062 1.38545 13.137 1.50389 13.34C1.62234 13.5431 1.79236 13.7112 1.99673 13.8273C2.20109 13.9435 2.43253 14.0036 2.6676 14.0015H13.3343C13.5682 14.0012 13.7979 13.9394 14.0005 13.8223C14.203 13.7052 14.3711 13.5368 14.4879 13.3342C14.6048 13.1315 14.6663 12.9017 14.6662 12.6678C14.6662 12.4338 14.6046 12.204 14.4876 12.0015Z" stroke="#4A5565" stroke-width="1.33333" stroke-linecap="round" stroke-linejoin="round"/>
<path d="M8 6V8.66667" stroke="#4A5565" stroke-width="1.33333" stroke-linecap="round" stroke-linejoin="round"/>
<path d="M8 11.332H8.00667" stroke="#4A5565" stroke-width="1.33333" stroke-linecap="round" stroke-linejoin="round"/>
</svg>
