<svg width="20" height="20" viewBox="0 0 20 20" fill="none" xmlns="http://www.w3.org/2000/svg">
<path d="M1.53906 9.78882C1.53906 6.59795 1.53906 5.00209 2.53075 4.01123C3.52245 3.02038 5.11745 3.01953 8.30829 3.01953H11.6929C14.8838 3.01953 16.4796 3.01953 17.4704 4.01123C18.4613 5.00293 18.4621 6.59795 18.4621 9.78882V11.4811C18.4621 14.672 18.4621 16.2679 17.4704 17.2587C16.4788 18.2496 14.8838 18.2504 11.6929 18.2504H8.30829C5.11745 18.2504 3.5216 18.2504 2.53075 17.2587C1.53991 16.267 1.53906 14.672 1.53906 11.4811V9.78882Z" stroke="#707070" stroke-width="1.5"/>
<path d="M5.77254 3.01924V1.75M14.2341 3.01924V1.75M1.96484 7.25005H18.0418" stroke="#707070" stroke-width="1.5" stroke-linecap="round"/>
<path d="M5.76953 13.6738C5.86134 13.6738 5.94973 13.7105 6.01465 13.7754C6.07942 13.8402 6.11612 13.9279 6.11621 14.0195C6.11621 14.1113 6.07956 14.1997 6.01465 14.2646C5.94974 14.3295 5.86131 14.3662 5.76953 14.3662C5.67793 14.3661 5.59019 14.3294 5.52539 14.2646C5.46047 14.1997 5.42383 14.1113 5.42383 14.0195C5.42392 13.9279 5.46059 13.8402 5.52539 13.7754C5.5902 13.7106 5.67789 13.6739 5.76953 13.6738ZM10.001 13.6738C10.0927 13.6739 10.1803 13.7106 10.2451 13.7754C10.31 13.8402 10.3466 13.9278 10.3467 14.0195C10.3467 14.1113 10.31 14.1997 10.2451 14.2646C10.1803 14.3294 10.0926 14.3662 10.001 14.3662C9.90917 14.3662 9.82078 14.3296 9.75586 14.2646C9.69098 14.1997 9.6543 14.1113 9.6543 14.0195C9.65439 13.9279 9.69115 13.8402 9.75586 13.7754C9.82078 13.7105 9.90917 13.6738 10.001 13.6738ZM14.2314 13.6738C14.3233 13.6738 14.4116 13.7105 14.4766 13.7754C14.5412 13.8402 14.578 13.928 14.5781 14.0195C14.5781 14.1113 14.5414 14.1997 14.4766 14.2646C14.4116 14.3296 14.3233 14.3662 14.2314 14.3662C14.1397 14.3662 14.0512 14.3295 13.9863 14.2646C13.9215 14.1998 13.8857 14.1112 13.8857 14.0195C13.8858 13.928 13.9217 13.8402 13.9863 13.7754C14.0512 13.7105 14.1397 13.6738 14.2314 13.6738ZM5.76953 10.2891C5.86134 10.2891 5.94973 10.3257 6.01465 10.3906C6.07943 10.4554 6.11609 10.5431 6.11621 10.6348C6.11621 10.7266 6.07956 10.815 6.01465 10.8799C5.94973 10.9448 5.86134 10.9814 5.76953 10.9814C5.6779 10.9813 5.5902 10.9447 5.52539 10.8799C5.46047 10.815 5.42383 10.7266 5.42383 10.6348C5.42395 10.5431 5.46058 10.4554 5.52539 10.3906C5.5902 10.3258 5.67789 10.2892 5.76953 10.2891ZM10.001 10.2891C10.0926 10.2891 10.1803 10.3258 10.2451 10.3906C10.3099 10.4554 10.3466 10.5431 10.3467 10.6348C10.3467 10.7266 10.31 10.815 10.2451 10.8799C10.1803 10.9447 10.0926 10.9814 10.001 10.9814C9.90917 10.9814 9.82078 10.9448 9.75586 10.8799C9.69102 10.815 9.6543 10.7265 9.6543 10.6348C9.65442 10.5432 9.69114 10.4554 9.75586 10.3906C9.82078 10.3257 9.90917 10.2891 10.001 10.2891ZM14.2314 10.2891C14.3232 10.2891 14.4116 10.3257 14.4766 10.3906C14.5412 10.4554 14.578 10.5432 14.5781 10.6348C14.5781 10.7265 14.5414 10.815 14.4766 10.8799C14.4116 10.9448 14.3232 10.9814 14.2314 10.9814C14.1397 10.9814 14.0512 10.9448 13.9863 10.8799C13.9216 10.815 13.8857 10.7264 13.8857 10.6348C13.8859 10.5433 13.9217 10.4554 13.9863 10.3906C14.0512 10.3257 14.1397 10.2891 14.2314 10.2891Z" fill="black" stroke="#707070"/>
</svg>
