<svg width="14" height="14" viewBox="0 0 14 14" fill="none" xmlns="http://www.w3.org/2000/svg">
<path d="M9.15768 7.40964L5.65768 10.9096C5.54102 11.0263 5.42435 11.0846 5.24935 11.0846C5.07435 11.0846 4.95768 11.0263 4.84102 10.9096C4.60768 10.6763 4.60768 10.3263 4.84102 10.093L7.93268 7.0013L4.84102 3.90964C4.60768 3.6763 4.60768 3.3263 4.84102 3.09297C5.07435 2.85964 5.42435 2.85964 5.65768 3.09297L9.15768 6.59297C9.39102 6.8263 9.39102 7.1763 9.15768 7.40964Z" fill="#4A5A55"/>
<mask id="mask0_306_1294" style="mask-type:luminance" maskUnits="userSpaceOnUse" x="4" y="2" width="6" height="10">
<path d="M9.15768 7.40964L5.65768 10.9096C5.54102 11.0263 5.42435 11.0846 5.24935 11.0846C5.07435 11.0846 4.95768 11.0263 4.84102 10.9096C4.60768 10.6763 4.60768 10.3263 4.84102 10.093L7.93268 7.0013L4.84102 3.90964C4.60768 3.6763 4.60768 3.3263 4.84102 3.09297C5.07435 2.85964 5.42435 2.85964 5.65768 3.09297L9.15768 6.59297C9.39102 6.8263 9.39102 7.1763 9.15768 7.40964Z" fill="white"/>
</mask>
<g mask="url(#mask0_306_1294)">
<rect width="14" height="14" fill="#4A5A55"/>
</g>
</svg>
