<svg width="36" height="36" viewBox="0 0 36 36" fill="none" xmlns="http://www.w3.org/2000/svg">
<path d="M18 20.6316C17.1071 20.6316 16.3482 20.3246 15.7232 19.7105C15.0982 19.0965 14.7857 18.3509 14.7857 17.4737V11.1579C14.7857 10.2807 15.0982 9.53509 15.7232 8.92105C16.3482 8.30702 17.1071 8 18 8C18.8929 8 19.6518 8.30702 20.2768 8.92105C20.9018 9.53509 21.2143 10.2807 21.2143 11.1579V17.4737C21.2143 18.3509 20.9018 19.0965 20.2768 19.7105C19.6518 20.3246 18.8929 20.6316 18 20.6316ZM16.9286 28V24.7632C15.0714 24.5175 13.5357 23.7018 12.3214 22.3158C11.1071 20.9298 10.5 19.3158 10.5 17.4737H12.6429C12.6429 18.9298 13.1654 20.1712 14.2104 21.1979C15.2554 22.2246 16.5186 22.7375 18 22.7368C19.4814 22.7361 20.745 22.2228 21.7907 21.1968C22.8364 20.1709 23.3586 18.9298 23.3571 17.4737H25.5C25.5 19.3158 24.8929 20.9298 23.6786 22.3158C22.4643 23.7018 20.9286 24.5175 19.0714 24.7632V28H16.9286ZM18 18.5263C18.3036 18.5263 18.5582 18.4253 18.7639 18.2232C18.9696 18.0211 19.0721 17.7712 19.0714 17.4737V11.1579C19.0714 10.8596 18.9686 10.6098 18.7629 10.4084C18.5571 10.207 18.3029 10.106 18 10.1053C17.6971 10.1046 17.4429 10.2056 17.2371 10.4084C17.0314 10.6112 16.9286 10.8611 16.9286 11.1579V17.4737C16.9286 17.7719 17.0314 18.0221 17.2371 18.2242C17.4429 18.4263 17.6971 18.527 18 18.5263Z" fill="black"/>
</svg>
