<svg width="26" height="20" viewBox="0 0 26 20" fill="none" xmlns="http://www.w3.org/2000/svg">
<path d="M10.9842 14.375C11.5041 14.875 12.1757 15.12 12.999 15.11C13.8223 15.1 14.4289 14.8133 14.8189 14.25L22.0983 3.75L11.1791 10.75C10.5942 11.125 10.2857 11.6979 10.2536 12.4688C10.2215 13.2396 10.4651 13.875 10.9842 14.375ZM12.999 0C14.2772 0 15.5069 0.171667 16.6881 0.515C17.8693 0.858334 18.9794 1.37417 20.0185 2.0625L17.5486 3.5625C16.8337 3.20833 16.0919 2.94292 15.3232 2.76625C14.5545 2.58958 13.7798 2.50083 12.999 2.5C10.1176 2.5 7.66377 3.47417 5.63766 5.4225C3.61155 7.37083 2.59893 9.73 2.5998 12.5C2.5998 13.375 2.72459 14.2396 2.97417 15.0938C3.22375 15.9479 3.57559 16.75 4.02969 17.5H21.9683C22.4666 16.7083 22.8297 15.8854 23.0576 15.0312C23.2855 14.1771 23.3991 13.2917 23.3982 12.375C23.3982 11.625 23.3059 10.8958 23.1213 10.1875C22.9367 9.47917 22.6607 8.79167 22.2933 8.125L23.8532 5.75C24.5031 6.72917 25.0179 7.77083 25.3974 8.875C25.777 9.97917 25.9772 11.125 25.998 12.3125C26.0188 13.5 25.878 14.6354 25.5755 15.7188C25.2731 16.8021 24.8289 17.8333 24.2431 18.8125C24.0048 19.1875 23.6798 19.4792 23.2682 19.6875C22.8566 19.8958 22.4233 20 21.9683 20H4.02969C3.57472 20 3.14142 19.8958 2.72979 19.6875C2.31815 19.4792 1.99318 19.1875 1.75486 18.8125C1.19157 17.875 0.758275 16.8804 0.454965 15.8288C0.151655 14.7771 0 13.6675 0 12.5C0 10.7708 0.34144 9.15125 1.02432 7.64125C1.7072 6.13125 2.6388 4.80833 3.81911 3.6725C4.99941 2.53667 6.38034 1.64083 7.96188 0.985C9.54343 0.329167 11.2225 0.000833333 12.999 0Z" fill="#D9231D"/>
</svg>
