<svg width="18" height="20" viewBox="0 0 18 20" fill="none" xmlns="http://www.w3.org/2000/svg">
<path d="M7.1775 7.15848C7.618 6.719 7.91798 6.15908 8.0395 5.54953C8.16101 4.93998 8.09862 4.30817 7.86019 3.73399C7.62176 3.15982 7.21802 2.66906 6.70001 2.32379C6.18201 1.97852 5.573 1.79423 4.95 1.79423C4.327 1.79423 3.718 1.97852 3.19999 2.32379C2.68198 2.66906 2.27824 3.15982 2.03981 3.73399C1.80139 4.30817 1.73899 4.93998 1.8605 5.54953C1.98202 6.15908 2.282 6.719 2.7225 7.15848L4.95 9.38058L7.1775 7.15848ZM4.95 11.9196L1.449 8.42889C0.756964 7.73821 0.285754 6.85833 0.0949452 5.90052C-0.0958633 4.9427 0.00229881 3.94995 0.377021 3.04778C0.751743 2.14561 1.3862 1.37454 2.20017 0.832044C3.01414 0.289551 3.97108 0 4.95 0C5.92892 0 6.88586 0.289551 7.69983 0.832044C8.5138 1.37454 9.14826 2.14561 9.52298 3.04778C9.8977 3.94995 9.99586 4.9427 9.80506 5.90052C9.61425 6.85833 9.14304 7.73821 8.451 8.42889L4.95 11.9196ZM4.95 6.2831C4.59196 6.2831 4.24858 6.14122 3.99541 5.88865C3.74223 5.63609 3.6 5.29355 3.6 4.93637C3.6 4.5792 3.74223 4.23665 3.99541 3.98409C4.24858 3.73153 4.59196 3.58964 4.95 3.58964C5.30804 3.58964 5.65142 3.73153 5.90459 3.98409C6.15777 4.23665 6.3 4.5792 6.3 4.93637C6.3 5.29355 6.15777 5.63609 5.90459 5.88865C5.65142 6.14122 5.30804 6.2831 4.95 6.2831ZM13.05 17.461L15.2775 15.2389C15.718 14.7994 16.018 14.2395 16.1395 13.6299C16.261 13.0204 16.1986 12.3885 15.9602 11.8144C15.7218 11.2402 15.318 10.7494 14.8 10.4042C14.282 10.0589 13.673 9.87461 13.05 9.87461C12.427 9.87461 11.818 10.0589 11.3 10.4042C10.782 10.7494 10.3782 11.2402 10.1398 11.8144C9.90138 12.3885 9.83899 13.0204 9.9605 13.6299C10.082 14.2395 10.382 14.7994 10.8225 15.2389L13.05 17.461ZM16.551 16.5093L13.05 20L9.549 16.5084C8.85696 15.8177 8.38575 14.9378 8.19494 13.98C8.00414 13.0222 8.1023 12.0294 8.47702 11.1273C8.85174 10.2251 9.4862 9.45402 10.3002 8.91153C11.1141 8.36904 12.0711 8.07948 13.05 8.07948C14.0289 8.07948 14.9859 8.36904 15.7998 8.91153C16.6138 9.45402 17.2483 10.2251 17.623 11.1273C17.9977 12.0294 18.0959 13.0222 17.9051 13.98C17.7142 14.9378 17.243 15.8186 16.551 16.5093ZM13.05 14.3635C12.692 14.3635 12.3486 14.2216 12.0954 13.969C11.8422 13.7165 11.7 13.3739 11.7 13.0168C11.7 12.6596 11.8422 12.317 12.0954 12.0645C12.3486 11.8119 12.692 11.67 13.05 11.67C13.408 11.67 13.7514 11.8119 14.0046 12.0645C14.2578 12.317 14.4 12.6596 14.4 13.0168C14.4 13.3739 14.2578 13.7165 14.0046 13.969C13.7514 14.2216 13.408 14.3635 13.05 14.3635Z" fill="#D9231D"/>
</svg>
